#!OML:ASF H:\Swim 2\Project 1\Capture day 1\Session 1\male.ASF
:FULLY-SPECIFIED
:DEGREES
1558
root 0.311234 14.9305 7.10846 120.657 2.71138 -1.97705
lowerback -27.989 0.385086 -2.86339
upperback 0.512544 1.05124 2.78743
thorax 15.476 0.141755 5.0533
lowerneck -6.58158 -0.554932 0.10561
upperneck 23.3593 0.206621 -4.30716
head 8.31621 -0.268797 -1.43479
rclavicle 1.02374e-014 9.31803e-015
rhumerus 92.201 -14.1157 -25.2222
rradius 34.2043
rwrist -19.9394
rhand -34.8501 0.321398
rfingers 7.12502
rthumb -8.00005 -29.5072
lclavicle 1.02374e-014 9.31803e-015
lhumerus -267.024 9.43084 -315.885
lradius 28.2903
lwrist 8.41514
lhand -49.0479 -16.5454
lfingers 7.12502
lthumb -21.675 12.2613
rfemur -43.2224 5.56338 17.5666
rtibia 28.8894
rfoot 5.72577 4.39355
rtoes 0.921171
lfemur -47.7267 -13.7412 -16.4053
ltibia 31.7235
lfoot 1.00391 4.50067
ltoes 4.47557
1559
root 0.307295 14.9144 7.10106 120.207 2.65165 -2.00214
lowerback -27.9294 0.448206 -2.92431
upperback 0.621588 1.15051 2.81333
thorax 15.5643 0.175287 5.15785
lowerneck -6.6782 -0.617579 0.0487838
upperneck 23.4758 0.136573 -4.29911
head 8.37207 -0.305966 -1.43044
rclavicle 7.85199e-015 3.27995e-015
rhumerus 91.8243 -14.0283 -24.5569
rradius 34.4802
rwrist -20.356
rhand -35.4766 0.286107
rfingers 7.12502
rthumb -8.60471 -29.5185
lclavicle 7.85199e-015 3.27995e-015
lhumerus -267.225 9.20367 -315.886
lradius 28.3515
lwrist 8.63639
lhand -49.3864 -17.0899
lfingers 7.12502
lthumb -22 11.6789
rfemur -43.2798 5.30683 17.9002
rtibia 30.7786
rfoot 6.71593 4.6208
rtoes 1.75462
lfemur -47.3616 -13.0292 -17.3075
ltibia 33.4134
lfoot 1.74171 4.58883
ltoes 5.93223
1560
root 0.303252 14.896 7.08917 119.715 2.5864 -1.99725
lowerback -27.8474 0.503236 -2.9923
upperback 0.720009 1.2401 2.84369
thorax 15.6299 0.204402 5.26658
lowerneck -6.77906 -0.680942 -0.000168233
upperneck 23.6002 0.0606269 -4.27265
head 8.43139 -0.34367 -1.42202
rclavicle 2.10712e-014 2.28602e-015
rhumerus 91.4532 -13.9303 -23.911
rradius 34.7268
rwrist -20.7082
rhand -36.1521 0.281927
rfingers 7.12502
rthumb -9.25655 -29.4949
lclavicle 2.10712e-014 2.28602e-015
lhumerus -267.394 8.96633 -315.822
lradius 28.3652
lwrist 8.74721
lhand -49.7119 -17.8026
lfingers 7.12502
lthumb -22.3125 10.9291
rfemur -43.3916 4.9083 18.3153
rtibia 32.9365
rfoot 7.78945 4.45469
rtoes 2.94274
lfemur -47.067 -12.2647 -18.2263
ltibia 35.3885
lfoot 2.4354 4.87076
ltoes 7.60561
1561
root 0.299251 14.8756 7.07312 119.194 2.52096 -1.96111
lowerback -27.7486 0.550456 -3.05611
upperback 0.805245 1.31696 2.87664
thorax 15.6728 0.228847 5.3699
lowerneck -6.88143 -0.73812 -0.0509459
upperneck 23.7228 -0.0134759 -4.21717
head 8.49061 -0.378125 -1.40349
rclavicle -3.75703e-014 -2.60408e-014
rhumerus 91.1091 -13.811 -23.3304
rradius 34.9186
rwrist -20.9162
rhand -36.8842 0.36029
rfingers 7.12502
rthumb -9.96297 -29.3839
lclavicle -3.75703e-014 -2.60408e-014
lhumerus -267.538 8.73348 -315.723
lradius 28.3295
lwrist 8.68899
lhand -50.0136 -18.6209
lfingers 7.12502
lthumb -22.6021 10.0759
rfemur -43.5501 4.42565 18.7676
rtibia 35.2747
rfoot 8.93307 3.98242
rtoes 4.44828
lfemur -46.8675 -11.4635 -19.1289
ltibia 37.6137
lfoot 3.02722 5.27074
ltoes 9.35332
1562
root 0.295409 14.8535 7.054 118.657 2.45941 -1.90177
lowerback -27.6428 0.593922 -3.1129
upperback 0.872649 1.38607 2.91104
thorax 15.6918 0.251435 5.46684
lowerneck -6.97617 -0.794539 -0.0442583
upperneck 23.8808 -0.0897503 -4.18355
head 8.56029 -0.410959 -1.40284
rclavicle 1.98785e-016 1.18277e-014
rhumerus 90.7925 -13.6719 -22.8216
rradius 35.0505
rwrist -20.9727
rhand -37.6568 0.527663
rfingers 7.12502
rthumb -10.7083 -29.1794
lclavicle 1.98785e-016 1.18277e-014
lhumerus -267.653 8.50119 -315.579
lradius 28.2436
lwrist 8.46403
lhand -50.2903 -19.5896
lfingers 7.12502
lthumb -22.8677 9.07459
rfemur -43.7411 3.91543 19.2146
rtibia 37.6897
rfoot 10.1486 3.34584
rtoes 6.12372
lfemur -46.7699 -10.654 -19.9834
ltibia 40.0315
lfoot 3.4466 5.74783
ltoes 10.7322
1563
root 0.291577 14.8299 7.03374 118.094 2.40238 -1.83201
lowerback -27.5221 0.635409 -3.16695
upperback 0.928383 1.45111 2.94634
thorax 15.6899 0.273321 5.56063
lowerneck -7.06726 -0.849608 -0.0151161
upperneck 24.0619 -0.167181 -4.15071
head 8.63722 -0.442562 -1.40681
rclavicle 1.23246e-014 2.77305e-014
rhumerus 90.5217 -13.5109 -22.417
rradius 35.1135
rwrist -20.8745
rhand -38.4468 0.777154
rfingers 7.12502
rthumb -11.4702 -28.8891
lclavicle 1.23246e-014 2.77305e-014
lhumerus -267.739 8.2749 -315.38
lradius 28.1298
lwrist 8.08728
lhand -50.5232 -20.6414
lfingers 7.12502
lthumb -23.0912 7.99498
rfemur -43.9232 3.4268 19.6227
rtibia 40.0706
rfoot 11.4715 2.67923
rtoes 7.78985
lfemur -46.7455 -9.85434 -20.7759
ltibia 42.569
lfoot 3.71085 6.22383
ltoes 11.733
1564
root 0.287564 14.8047 7.01384 117.499 2.35601 -1.76453
lowerback -27.3764 0.678356 -3.21195
upperback 0.974257 1.51465 2.98033
thorax 15.6639 0.296405 5.64601
lowerneck -7.1591 -0.860895 -0.102416
upperneck 24.1777 -0.203074 -3.97529
head 8.69417 -0.451762 -1.33817
rclavicle 1.59028e-015 3.27995e-015
rhumerus 90.3013 -13.3273 -22.1183
rradius 35.1187
rwrist -20.6731
rhand -39.2378 1.07824
rfingers 7.12502
rthumb -12.233 -28.544
lclavicle 1.59028e-015 3.27995e-015
lhumerus -267.799 8.05014 -315.111
lradius 28.0052
lwrist 7.59079
lhand -50.6998 -21.7291
lfingers 7.12502
lthumb -23.2607 6.88598
rfemur -44.0588 2.99936 19.9728
rtibia 42.3092
rfoot 12.968 2.12072
rtoes 9.32425
lfemur -46.7618 -9.07825 -21.4872
ltibia 45.1482
lfoot 3.85159 6.62811
ltoes 12.2441
1565
root 0.283361 14.7778 6.9959 116.853 2.31909 -1.70484
lowerback -27.1871 0.724798 -3.25455
upperback 1.017 1.58072 3.0158
thorax 15.612 0.321772 5.73096
lowerneck -7.24719 -0.842583 -0.283406
upperneck 24.2494 -0.210438 -3.69464
head 8.73678 -0.445971 -1.21465
rclavicle -1.35174e-014 -6.75868e-015
rhumerus 90.1307 -13.1093 -21.938
rradius 35.0746
rwrist -20.3837
rhand -40.0203 1.40209
rfingers 7.12502
rthumb -12.9873 -28.1737
lclavicle -1.35174e-014 -6.75868e-015
lhumerus -267.836 7.81826 -314.762
lradius 27.8906
lwrist 7.02516
lhand -50.816 -22.8619
lfingers 7.12502
lthumb -23.3721 5.73902
rfemur -44.0993 2.64953 20.2518
rtibia 44.3083
rfoot 14.7178 1.77874
rtoes 10.7297
lfemur -46.7729 -8.34328 -22.1116
ltibia 47.6926
lfoot 3.94163 6.88203
ltoes 12.376
1566
root 0.279081 14.7493 6.98109 116.147 2.28734 -1.65354
lowerback -26.9415 0.772703 -3.30399
upperback 1.05897 1.64841 3.05786
thorax 15.5304 0.348188 5.82557
lowerneck -7.33753 -0.835739 -0.435026
upperneck 24.384 -0.225314 -3.45996
head 8.80116 -0.445585 -1.11296
rclavicle -1.63003e-014 8.05078e-015
rhumerus 90.0009 -12.8591 -21.845
rradius 35.002
rwrist -20.0604
rhand -40.7838 1.70732
rfingers 7.12502
rthumb -13.7232 -27.8202
lclavicle -1.63003e-014 8.05078e-015
lhumerus -267.855 7.57121 -314.318
lradius 27.8108
lwrist 6.4642
lhand -50.8504 -23.9753
lfingers 7.12502
lthumb -23.4051 4.62144
rfemur -44.0141 2.37608 20.4527
rtibia 45.989
rfoot 16.7704 1.6812
rtoes 11.8577
lfemur -46.7505 -7.66213 -22.6484
ltibia 50.132
lfoot 4.08496 6.89945
ltoes 12.4242
1567
root 0.275033 14.7199 6.96946 115.385 2.24745 -1.60238
lowerback -26.6362 0.817744 -3.35344
upperback 1.10113 1.71124 3.09509
thorax 15.4191 0.373803 5.9106
lowerneck -7.39752 -0.79542 -0.693384
upperneck 24.4604 -0.20575 -3.11692
head 8.8412 -0.42802 -0.952049
rclavicle 4.65156e-014 1.50082e-014
rhumerus 89.9068 -12.5867 -21.8216
rradius 34.914
rwrist -19.7404
rhand -41.5229 1.98094
rfingers 7.12502
rthumb -14.4355 -27.497
lclavicle 4.65156e-014 1.50082e-014
lhumerus -267.878 7.31498 -313.845
lradius 27.7828
lwrist 5.94431
lhand -50.8091 -25.0564
lfingers 7.12502
lthumb -23.3655 3.54541
rfemur -43.7963 2.16448 20.5656
rtibia 47.3001
rfoot 19.1044 1.81988
rtoes 12.4759
lfemur -46.684 -7.05542 -23.106
ltibia 52.401
lfoot 4.32529 6.67813
ltoes 12.3819
1568
root 0.271404 14.6901 6.96106 114.584 2.19823 -1.53913
lowerback -26.2782 0.856857 -3.42046
upperback 1.13735 1.76873 3.14158
thorax 15.2735 0.39681 6.01114
lowerneck -7.4418 -0.769888 -0.93213
upperneck 24.5936 -0.197496 -2.81839
head 8.89747 -0.418105 -0.810826
rclavicle -8.34896e-015 2.23633e-014
rhumerus 89.8302 -12.2895 -21.8293
rradius 34.8218
rwrist -19.4147
rhand -42.2262 2.20955
rfingers 7.12502
rthumb -15.1131 -27.2187
lclavicle -8.34896e-015 2.23633e-014
lhumerus -267.905 7.03509 -313.325
lradius 27.8111
lwrist 5.51702
lhand -50.7002 -26.1236
lfingers 7.12502
lthumb -23.261 2.49146
rfemur -43.4587 2.00157 20.597
rtibia 48.2161
rfoot 21.6647 2.13452
rtoes 12.6085
lfemur -46.5802 -6.52846 -23.4856
ltibia 54.4416
lfoot 4.67402 6.23265
ltoes 12.2806
1569
root 0.267997 14.6609 6.95532 113.769 2.14392 -1.46404
lowerback -25.8864 0.891266 -3.50808
upperback 1.16365 1.8233 3.20088
thorax 15.0979 0.417985 6.13403
lowerneck -7.51534 -0.811779 -1.00878
upperneck 24.9257 -0.250593 -2.73087
head 9.02675 -0.442886 -0.776387
rclavicle 3.57812e-014 2.94201e-014
rhumerus 89.7591 -11.9794 -21.8404
rradius 34.7328
rwrist -19.0772
rhand -42.89 2.39268
rfingers 7.12502
rthumb -15.7524 -26.9863
lclavicle 3.57812e-014 2.94201e-014
lhumerus -267.94 6.73868 -312.787
lradius 27.8967
lwrist 5.1929
lhand -50.5477 -27.1315
lfingers 7.12502
lthumb -23.1147 1.50195
rfemur -43.0332 1.88931 20.5581
rtibia 48.7399
rfoot 24.3424 2.55011
rtoes 12.3032
lfemur -46.4555 -6.07395 -23.787
ltibia 56.2038
lfoot 5.11623 5.61286
ltoes 12.2232
1570
root 0.264544 14.6331 6.95126 112.969 2.10111 -1.38014
lowerback -25.5473 0.924368 -3.59985
upperback 0.892321 1.8916 3.10746
thorax 15.2306 0.39298 6.44131
lowerneck -7.63113 -0.910377 -0.943177
upperneck 25.4417 -0.357059 -2.8135
head 9.22761 -0.496394 -0.831601
rclavicle 1.86858e-014 1.21259e-014
rhumerus 89.6782 -11.6759 -21.8241
rradius 34.6616
rwrist -18.7578
rhand -43.4993 2.56074
rfingers 7.12502
rthumb -16.3391 -26.771
lclavicle 1.86858e-014 1.21259e-014
lhumerus -267.988 6.4364 -312.282
lradius 28.0229
lwrist 4.96771
lhand -50.3891 -28.1512
lfingers 7.12502
lthumb -22.9625 0.501257
rfemur -42.5605 1.83352 20.4748
rtibia 48.8944
rfoot 26.9594 3.02176
rtoes 11.7953
lfemur -46.3355 -5.67285 -24.0006
ltibia 57.6507
lfoot 5.59999 4.87641
ltoes 12.1401
1571
root 0.260839 14.6075 6.94812 112.204 2.07652 -1.2929
lowerback -25.1539 0.960905 -3.67881
upperback 0.901173 1.94322 3.18281
thorax 15.0046 0.416824 6.57227
lowerneck -7.76548 -1.03129 -0.853284
upperneck 26.0065 -0.486763 -2.93295
head 9.45028 -0.56153 -0.907573
rclavicle -2.8625e-014 -1.12313e-014
rhumerus 89.6108 -11.3787 -21.8258
rradius 34.5974
rwrist -18.3822
rhand -44.0663 2.73807
rfingers 7.12502
rthumb -16.885 -26.5479
lclavicle -2.8625e-014 -1.12313e-014
lhumerus -268.06 6.16155 -311.855
lradius 28.1929
lwrist 4.84325
lhand -50.2444 -29.1689
lfingers 7.12502
lthumb -22.8236 -0.499257
rfemur -42.0738 1.83387 20.3639
rtibia 48.7193
rfoot 29.2787 3.53135
rtoes 11.1861
lfemur -46.2372 -5.31834 -24.129
ltibia 58.7613
lfoot 6.06906 4.08602
ltoes 12.1054
1572
root 0.256965 14.5845 6.94465 111.497 2.07745 -1.20933
lowerback -24.7906 1.00105 -3.72827
upperback 0.893002 1.99173 3.25602
thorax 14.7763 0.442657 6.68224
lowerneck -7.93112 -1.13878 -0.863421
upperneck 26.523 -0.605814 -2.95531
head 9.66487 -0.621076 -0.932615
rclavicle 6.67916e-014 5.27773e-014
rhumerus 89.5487 -11.1126 -21.8138
rradius 34.5523
rwrist -17.9701
rhand -44.5893 2.91243
rfingers 7.12502
rthumb -17.3884 -26.3298
lclavicle 6.67916e-014 5.27773e-014
lhumerus -268.156 5.92695 -311.523
lradius 28.3886
lwrist 4.77409
lhand -50.1401 -30.2294
lfingers 7.12502
lthumb -22.7236 -1.54745
rfemur -41.6148 1.89127 20.2406
rtibia 48.2648
rfoot 31.0791 4.08257
rtoes 10.6384
lfemur -46.1885 -4.9973 -24.1741
ltibia 59.5329
lfoot 6.4708 3.29181
ltoes 12.1826
